<svg xmlns="http://www.w3.org/2000/svg" width="17" height="17" viewBox="0 0 17 17">
  <path fill="#86919F" d="M8.49964021,0 C3.80584127,0 0,3.80584127 0,8.49964021 C0,13.1934392 3.80584127,17 8.49964021,17 C13.1934392,17 17,13.1934392 17,8.49964021 C17,3.80584127 13.1934392,0 8.49964021,0 Z M10.2690794,13.173291 C9.83157672,13.3459894 9.48330159,13.4769524 9.22209524,13.567619 C8.96160847,13.6582857 8.65866667,13.703619 8.31398942,13.703619 C7.78438095,13.703619 7.37206349,13.5740952 7.07847619,13.3157672 C6.78488889,13.0574392 6.63881481,12.7300317 6.63881481,12.3321058 C6.63881481,12.1773968 6.64960847,12.0190899 6.67119577,11.8579048 C6.69350265,11.6967196 6.7287619,11.5153862 6.77697354,11.311746 L7.32457143,9.37752381 C7.37278307,9.19187302 7.41451852,9.01557672 7.44761905,8.85151323 C7.48071958,8.68601058 7.49655026,8.53417989 7.49655026,8.39602116 C7.49655026,8.14992593 7.44546032,7.97722751 7.344,7.88008466 C7.24110053,7.7829418 7.04753439,7.73544974 6.75898413,7.73544974 C6.61794709,7.73544974 6.47259259,7.75631746 6.32364021,7.80021164 C6.17612698,7.84554497 6.04804233,7.88656085 5.94298413,7.92685714 L6.08761905,7.33104762 C6.44596825,7.18497354 6.78920635,7.0597672 7.11661376,6.95614815 C7.44402116,6.85108995 7.75343915,6.79928042 8.04486772,6.79928042 C8.57087831,6.79928042 8.97671958,6.92736508 9.26239153,7.18065608 C9.54662434,7.43466667 9.68982011,7.76495238 9.68982011,8.17079365 C9.68982011,8.25498413 9.67974603,8.40321693 9.66031746,8.61477249 C9.64088889,8.82704762 9.60419048,9.02061376 9.5509418,9.19834921 L9.00622222,11.1268148 C8.96160847,11.2815238 8.92203175,11.4585397 8.88605291,11.6564233 C8.85079365,11.8543069 8.83352381,12.005418 8.83352381,12.1068783 C8.83352381,12.3630476 8.89037037,12.5379048 9.00550265,12.6307302 C9.11919577,12.7235556 9.31851852,12.770328 9.60059259,12.770328 C9.73371429,12.770328 9.88266667,12.746582 10.0510476,12.7005291 C10.2179894,12.6544762 10.3388783,12.6134603 10.4151534,12.5782011 L10.2690794,13.173291 Z M10.1726561,5.34573545 C9.9186455,5.58175661 9.6128254,5.6997672 9.25519577,5.6997672 C8.89828571,5.6997672 8.59030688,5.58175661 8.33413757,5.34573545 C8.07940741,5.10971429 7.95060317,4.82260317 7.95060317,4.48728042 C7.95060317,4.15267725 8.08012698,3.86484656 8.33413757,3.62666667 C8.59030688,3.3877672 8.89828571,3.26903704 9.25519577,3.26903704 C9.6128254,3.26903704 9.91936508,3.3877672 10.1726561,3.62666667 C10.4266667,3.86484656 10.5540317,4.15267725 10.5540317,4.48728042 C10.5540317,4.82332275 10.4266667,5.10971429 10.1726561,5.34573545 Z"/>
</svg>
