<?xml version="1.0" encoding="UTF-8"?>
<svg width="194px" height="218px" viewBox="0 0 194 218" version="1.1" xmlns="http://www.w3.org/2000/svg" xmlns:xlink="http://www.w3.org/1999/xlink">
    <!-- Generator: Sketch 48.2 (47327) - http://www.bohemiancoding.com/sketch -->
    <title>noSearch</title>
    <desc>Created with Sketch.</desc>
    <defs>
        <polygon id="path-1" points="0.642329647 69.2742631 32.9067151 69.2742631 32.9067151 0.43970927 0.642329647 0.43970927"></polygon>
    </defs>
    <g id="Artboard-6" stroke="none" stroke-width="1" fill="none" fill-rule="evenodd" transform="translate(-3348.000000, -1408.000000)" opacity="0.714956975">
        <g id="noSearch" transform="translate(3310.000000, 1388.000000)">
            <g id="search" transform="translate(142.824106, 140.518789) rotate(-50.000000) translate(-142.824106, -140.518789) translate(50.253773, 32.777856)">
                <path d="M167.537542,33.9368093 C169.215834,35.0761887 170.668168,36.5291252 171.807075,38.2099376 C172.945981,36.5291252 174.398315,35.0761887 176.076608,33.9368093 C174.398315,32.79743 172.945981,31.3444935 171.807075,29.6655041 C170.668168,31.3444935 169.215834,32.79743 167.537542,33.9368093 M174.540451,47.1207954 L169.073699,47.1207954 C169.073699,41.3582706 164.388692,36.6713198 158.63038,36.6713198 L158.63038,31.202299 C164.388692,31.202299 169.073699,26.5153482 169.073699,20.7546463 L174.540451,20.7546463 C174.540451,26.5153482 179.227279,31.202299 184.985591,31.202299 L184.985591,36.6713198 C179.227279,36.6713198 174.540451,41.3582706 174.540451,47.1207954" id="Fill-1" fill="#86919F" fill-rule="nonzero"></path>
                <path d="M23.3723689,163.320533 C25.0506618,164.459912 26.5029955,165.912849 27.6419022,167.591838 C28.7808088,165.912849 30.2331426,164.459912 31.9114354,163.320533 C30.2331426,162.181153 28.7808088,160.728217 27.6419022,159.049228 C26.5029955,160.728217 25.0506618,162.181153 23.3723689,163.320533 M24.9085262,176.502696 C24.9085262,170.741994 20.2235198,166.055043 14.4633855,166.055043 L14.4633855,160.586023 C20.2235198,160.586023 24.9085262,155.899072 24.9085262,150.13837 L30.3752781,150.13837 C30.3752781,155.899072 35.0621068,160.586023 40.8204188,160.586023 L40.8204188,166.055043 C35.0621068,166.055043 30.3752781,170.741994 30.3752781,176.502696 L24.9085262,176.502696 Z" id="Fill-3" fill="#86919F" fill-rule="nonzero"></path>
                <path d="M93.3085262,57.4935225 C74.6432129,57.4935225 59.4583983,72.6846392 59.4583983,91.3576994 C59.4583983,110.030759 74.6432129,125.221876 93.3085262,125.221876 C111.97384,125.221876 127.158654,110.030759 127.158654,91.3576994 C127.158654,72.6846392 111.97384,57.4935225 93.3085262,57.4935225 M93.3085262,130.690896 C71.6292104,130.690896 53.9916464,113.047835 53.9916464,91.3576994 C53.9916464,69.6693858 71.6292104,52.0245018 93.3085262,52.0245018 C114.987842,52.0245018 132.625406,69.6693858 132.625406,91.3576994 C132.625406,113.047835 114.987842,130.690896 93.3085262,130.690896" id="Fill-5" fill="#404E61" fill-rule="nonzero"></path>
                <path d="M123.800975,91.3580634 L118.334223,91.3580634 C118.334223,77.554255 107.107337,66.3227096 93.3092551,66.3227096 L93.3092551,60.8536889 C110.123162,60.8536889 123.800975,74.5371791 123.800975,91.3580634" id="Fill-7" fill="#86919F" fill-rule="nonzero"></path>
                <path d="M107.169293,118.537638 L104.680099,113.668387 C109.130035,111.389628 112.767247,107.874871 115.196308,103.505123 L119.974249,106.161245 C117.016736,111.484425 112.588667,115.764845 107.169293,118.537638" id="Fill-9" fill="#86919F" fill-rule="nonzero"></path>
                <path d="M93.3085262,46.7335887 C68.7136093,46.7335887 48.7034751,66.7520278 48.7034751,91.3589755 C48.7034751,115.9641 68.7136093,135.982538 93.3085262,135.982538 C117.903443,135.982538 137.913577,115.9641 137.913577,91.3589755 C137.913577,66.7520278 117.903443,46.7335887 93.3085262,46.7335887 M93.3085262,141.451559 C65.6996068,141.451559 43.2367231,118.979353 43.2367231,91.3589755 C43.2367231,63.7367743 65.6996068,41.264568 93.3085262,41.264568 C120.917446,41.264568 143.380329,63.7367743 143.380329,91.3589755 C143.380329,118.979353 120.917446,141.451559 93.3085262,141.451559" id="Fill-11" fill="#404E61" fill-rule="nonzero"></path>
                <polygon id="Fill-13" fill="#404E61" fill-rule="nonzero" points="102.377868 151.089979 84.2391848 151.089979 84.2391848 138.717231 89.7059367 138.717231 89.7059367 145.620959 96.9111157 145.620959 96.9111157 138.717231 102.377868 138.717231"></polygon>
                <g id="Group-17" transform="translate(76.534527, 145.181250)">
                    <g id="Fill-15-Clipped">
                        <mask id="mask-2" fill="white">
                            <use xlink:href="#path-1"></use>
                        </mask>
                        <g id="path-1"></g>
                        <path d="M10.4066912,5.90873004 L6.12257992,59.091311 C6.02417839,60.3218407 6.42871803,61.4958571 7.26330882,62.4000686 C8.09789962,63.306103 9.23680627,63.8056069 10.4686477,63.8056069 L23.0804444,63.8056069 C24.3104636,63.8056069 25.4493702,63.306103 26.283961,62.4000686 C27.1185518,61.4958571 27.5249137,60.3218407 27.4265121,59.091311 L23.1405786,5.90873004 L10.4066912,5.90873004 Z M23.0804444,69.2746277 L10.4686477,69.2746277 C7.73162724,69.2746277 5.10029731,68.1206643 3.24524616,66.1098877 C1.39019501,64.097288 0.453558184,61.3810077 0.674050512,58.6519663 L5.36270141,0.43970927 L28.1845684,0.43970927 L32.8750416,58.6537893 C33.0955339,61.3810077 32.1570748,64.099111 30.3020237,66.1098877 C28.4469725,68.1206643 25.8156426,69.2746277 23.0804444,69.2746277 Z" id="Fill-15" fill="#404E61" fill-rule="nonzero" mask="url(#mask-2)"></path>
                    </g>
                </g>
                <polygon id="Fill-18" fill="#404E61" fill-rule="nonzero" points="180.856554 104.93983 157.631969 101.335745 158.470205 95.9323524 181.694789 99.5346145"></polygon>
                <polygon id="Fill-20" fill="#404E61" fill-rule="nonzero" points="115.184281 24.3838885 110.009089 22.6210408 117.589652 0.365772269 122.764843 2.12861996"></polygon>
                <polygon id="Fill-22" fill="#404E61" fill-rule="nonzero" points="63.3498146 25.4556343 54.8563043 3.533976 59.9531394 1.5578365 68.4466496 23.4794947"></polygon>
                <polygon id="Fill-24" fill="#404E61" fill-rule="nonzero" points="29.4264322 57.6342587 8.835 46.3024476 11.4699744 41.5097624 32.0614066 52.8415735"></polygon>
                <polygon id="Fill-26" fill="#404E61" fill-rule="nonzero" points="1.06054987 108.658764 2.84217094e-13 103.293655 23.0551151 98.7324912 24.115665 104.097601"></polygon>
                <polygon id="Fill-28" fill="#404E61" fill-rule="nonzero" points="148.955687 159.070922 133.481135 141.376816 137.595777 137.776378 153.070329 155.470482"></polygon>
            </g>
        </g>
    </g>
</svg>