<svg xmlns="http://www.w3.org/2000/svg" width="63" height="63" viewBox="0 0 63 63">
  <path fill="#FFF" fill-rule="evenodd" d="M101.197583,86.3656935 L102.519762,85.6626784 L103.638502,87.7667207 C103.897697,88.2541962 104.497898,88.4422839 104.978745,88.186613 L106.43796,87.4107347 C106.919882,87.1544918 107.099289,86.5511807 106.840384,86.0642498 L106.462451,85.3534615 L106.713631,85.2199064 C107.195554,84.9636635 107.375251,84.360897 107.116055,83.8734215 L106.844407,83.3625254 L106.903034,83.331353 C107.402168,83.0659586 107.59225,82.4450946 107.323787,81.9401898 C107.055035,81.4347404 106.435099,81.2445703 105.935426,81.5102507 L105.876262,81.5417091 L105.604614,81.030813 C105.345418,80.5433375 104.744679,80.3555359 104.263294,80.6114928 L104.012114,80.7450479 L103.634181,80.0342596 C103.374986,79.5467841 102.773709,79.3592684 102.292862,79.6149394 L100.833647,80.3908177 C100.352262,80.6467746 100.173104,81.249255 100.432299,81.7367305 L101.551328,83.8413175 L95.0335371,87.3068881 L93.9145084,85.2023012 C93.6553131,84.7148257 93.0540364,84.52731 92.5731893,84.7829809 L91.1139745,85.5588592 C90.6331274,85.8145301 90.4528931,86.4175825 90.7120885,86.905058 L91.0900213,87.6158463 L90.837227,87.7502595 C90.3563799,88.0059304 90.1761457,88.6089828 90.435341,89.0964583 L90.7069893,89.6073544 L90.5924251,89.6682693 C90.0943665,89.9330917 89.904285,90.5539557 90.1730372,91.0594052 C90.4414999,91.56431 91.0625117,91.753908 91.5605703,91.4890856 L91.6751345,91.4281707 L91.9467828,91.9390668 C92.2062677,92.427087 92.8067169,92.614344 93.287564,92.3586731 L93.5403583,92.22426 L93.9182911,92.9350482 C94.1774865,93.4225237 94.7782253,93.6103254 95.2590723,93.3546545 L96.7182872,92.5787762 C97.1991343,92.3231053 97.3796168,91.7192222 97.120711,91.2322914 L96.0019719,89.1282491 L98.5945084,87.749773 C98.6360923,87.8504328 98.6823852,87.9540154 98.7333871,88.0605208 C102.961793,94.3503785 105.354506,98.5204295 105.911527,100.570674 C106.11453,101.317875 107.399817,103.82884 106.59701,105.586949 C105.663668,107.630923 102.48573,111.661401 97.0631971,117.678383 C95.9695087,119.132017 96.0620633,120.28293 97.3408608,121.131124 C99.2590571,122.403415 107.827977,111.879557 110.968357,110.467318 C114.108738,109.05508 117.95917,112.161177 117.95917,112.522777 C117.95917,112.763843 117.819982,115.14915 117.541605,119.678698 C117.845453,120.770787 118.468874,121.316832 119.41187,121.316832 C120.354865,121.316832 120.984944,120.770787 121.302107,119.678698 C122.591098,113.975502 123.151975,110.68892 122.984739,109.818951 C122.733885,108.513997 115.972481,105.547945 115.72449,104.406163 C115.615963,103.906492 116.586898,101.144765 119.41187,96.7309874 C120.39385,95.1967269 121.870255,92.3065713 123.841086,88.0605208 C124.574424,86.8308718 124.574424,86.0202008 123.841086,85.6285078 C123.107748,85.2368147 122.208244,85.6685694 121.142574,86.9237719 C117.741079,92.8367382 114.838158,95.9775232 112.433812,96.3461269 C110.046368,96.7121393 106.300959,93.3853281 101.197583,86.3656935 Z M109.5,132 C92.1030304,132 78,117.89697 78,100.5 C78,83.1030304 92.1030304,69 109.5,69 C126.89697,69 141,83.1030304 141,100.5 C141,117.89697 126.89697,132 109.5,132 Z M112.160891,95.0445545 C114.245629,95.0445545 115.935644,93.3545402 115.935644,91.269802 C115.935644,89.1850638 114.245629,87.4950495 112.160891,87.4950495 C110.076153,87.4950495 108.386139,89.1850638 108.386139,91.269802 C108.386139,93.3545402 110.076153,95.0445545 112.160891,95.0445545 Z" transform="translate(-78 -69)"/>
</svg>
