<?xml version="1.0" encoding="UTF-8"?>
<svg width="507px" height="533px" viewBox="0 0 507 533" version="1.1" xmlns="http://www.w3.org/2000/svg" xmlns:xlink="http://www.w3.org/1999/xlink">
    <!-- Generator: Sketch 48.2 (47327) - http://www.bohemiancoding.com/sketch -->
    <title>003-social</title>
    <desc>Created with Sketch.</desc>
    <defs></defs>
    <g id="Icons" stroke="none" stroke-width="1" fill="none" fill-rule="evenodd">
        <g id="003-social" fill="#000000" fill-rule="nonzero">
            <path d="M462.875768,401.75065 C406.627056,360.174479 352.663107,332.927432 340.4777,326.956963 C338.845725,326.197086 337.866541,324.568776 337.866541,322.831912 L337.866541,273.331301 C345.482421,260.413379 350.378343,246.844132 352.227914,234.46898 C357.776627,234.034764 364.957313,226.327432 372.79079,198.754723 C383.453021,161.086495 372.138,155.550242 362.563751,156.418674 C364.413322,151.208084 365.8277,146.106047 366.698086,140.895456 C383.017828,43.3054358 334.820189,39.9402627 334.820189,39.9402627 C334.820189,39.9402627 326.877914,24.6341527 305.771047,13.0188778 C291.736069,4.660222 272.043579,-1.74446232 246.258386,0.426617108 C237.880918,0.860832994 229.938644,2.48914257 222.540361,4.98588391 C213.07491,8.24250305 204.371047,12.9103238 196.428773,18.3380224 C186.745725,24.4170448 177.60667,31.9072688 169.555597,40.4830326 C156.826197,53.5095092 145.402378,70.3353747 140.506455,91.2862912 C136.37212,106.918063 137.351305,123.309713 140.724052,140.895456 C141.703236,145.997493 143.008815,151.208084 144.858386,156.418674 C135.284137,155.550242 123.860318,161.086495 134.631348,198.754723 C142.464824,226.327432 149.754309,234.034764 155.194223,234.46898 C157.152592,246.952686 162.048515,260.739041 169.555597,273.765517 L169.555597,322.831912 C169.555597,324.568776 168.576412,326.197086 166.944438,326.956963 C154.75903,332.927432 100.795082,360.065925 44.5463691,401.75065 C16.5852103,422.484458 0.265467811,455.484866 0.265467811,490.222136 L0.265467811,503.574275 C0.265467811,519.314601 13.1036652,532.123969 28.8794163,532.123969 L220.364395,532.123969 L286.840146,532.123969 L478.325124,532.123969 C494.100876,532.123969 506.939073,519.314601 506.939073,503.574275 L506.939073,490.222136 C507.265468,455.376312 490.945725,422.484458 462.875768,401.75065 Z" id="Shape"></path>
        </g>
    </g>
</svg>