<?xml version="1.0" standalone="no"?>
<!DOCTYPE svg PUBLIC "-//W3C//DTD SVG 20010904//EN"
 "http://www.w3.org/TR/2001/REC-SVG-20010904/DTD/svg10.dtd">
<svg version="1.0" xmlns="http://www.w3.org/2000/svg"
 width="384.000000pt" height="384.000000pt" viewBox="0 0 384.000000 384.000000"
 preserveAspectRatio="xMidYMid meet">
<metadata>
Created by potrace 1.11, written by Peter Selinger 2001-2013
</metadata>
<g transform="translate(0.000000,384.000000) scale(0.100000,-0.100000)"
fill="#000000" stroke="none">
<path d="M442 3820 c-107 -28 -187 -75 -267 -155 -82 -81 -127 -160 -155 -271
-19 -75 -20 -116 -20 -1474 0 -1358 1 -1399 20 -1474 28 -111 73 -190 155
-271 81 -82 160 -127 271 -155 75 -19 116 -20 1474 -20 1358 0 1399 1 1474 20
111 28 190 73 271 155 82 81 127 160 155 271 19 75 20 116 20 1474 0 1358 -1
1399 -20 1474 -28 111 -73 190 -155 271 -81 82 -160 127 -271 155 -75 19 -115
20 -1478 19 -1346 0 -1404 -1 -1474 -19z m1604 -414 c61 -40 88 -87 92 -162
l4 -64 228 0 c182 0 230 -3 239 -14 8 -9 11 -52 9 -127 l-3 -114 -680 0 -680
0 -3 114 c-2 75 1 118 9 127 9 11 57 14 238 14 l227 0 -4 33 c-9 81 44 172
123 209 57 27 148 20 201 -16z m-896 -438 c0 -76 24 -122 75 -144 51 -21 1369
-21 1420 0 51 22 75 68 75 145 l0 63 93 -4 c76 -3 103 -9 150 -31 71 -35 139
-110 167 -183 20 -55 20 -66 18 -1022 l-3 -967 -30 -53 c-38 -70 -112 -136
-181 -162 -55 -20 -66 -20 -1022 -18 l-967 3 -50 25 c-64 31 -134 101 -165
165 l-25 50 0 975 0 975 27 51 c71 135 170 193 331 194 l87 0 0 -62z"/>
<path d="M1910 3343 c-62 -19 -90 -56 -90 -119 0 -28 8 -44 34 -70 29 -29 41
-34 81 -34 138 0 152 195 15 223 -14 3 -32 3 -40 0z"/>
<path d="M1063 2474 c-68 -34 -93 -126 -53 -191 34 -57 62 -68 187 -72 98 -3
118 0 155 18 74 35 101 117 64 190 -31 59 -66 71 -201 71 -89 0 -128 -5 -152
-16z m127 -31 c0 -5 -7 -17 -15 -27 -21 -28 -19 -95 5 -133 l20 -33 -46 0
c-51 0 -98 21 -114 49 -20 39 -12 91 19 122 25 24 37 29 80 29 28 0 51 -3 51
-7z"/>
<path d="M1572 2458 c-8 -8 -12 -47 -12 -110 0 -86 2 -98 19 -108 13 -6 227
-10 626 -10 399 0 613 4 626 10 17 10 19 22 19 108 0 63 -4 102 -12 110 -17
17 -1249 17 -1266 0z"/>
<path d="M1063 1934 c-101 -50 -95 -196 9 -250 36 -19 227 -19 271 0 75 32
110 122 73 191 -32 58 -78 75 -207 75 -84 0 -123 -5 -146 -16z m298 -53 c41
-41 41 -101 0 -142 -26 -25 -37 -29 -86 -29 l-56 0 20 26 c25 32 29 110 6 140
-23 30 -18 34 36 34 43 0 55 -5 80 -29z"/>
<path d="M1572 1918 c-8 -8 -12 -47 -12 -108 0 -61 4 -100 12 -108 17 -17
1249 -17 1266 0 8 8 12 47 12 108 0 61 -4 100 -12 108 -17 17 -1249 17 -1266
0z"/>
<path d="M1075 1396 c-17 -7 -43 -28 -58 -45 -49 -59 -31 -160 36 -201 27 -17
51 -20 150 -20 137 0 174 12 208 67 17 27 20 45 17 84 -6 56 -33 93 -85 115
-43 18 -227 18 -268 0z m292 -60 c34 -40 32 -99 -6 -137 -25 -24 -37 -29 -80
-29 l-52 0 17 32 c23 44 20 105 -7 141 l-22 30 63 -5 c53 -4 67 -9 87 -32z"/>
<path d="M1578 1379 c-15 -8 -18 -25 -18 -107 0 -63 4 -102 12 -110 17 -17
1249 -17 1266 0 8 8 12 47 12 110 0 86 -2 98 -19 108 -27 14 -1229 13 -1253
-1z"/>
</g>
</svg>
