<svg xmlns="http://www.w3.org/2000/svg" width="18" height="18" viewBox="0 0 18 18">
  <path fill="#FFF" d="M21.25,11.5 L14.875,11.5 C14.65,11.5 14.5,11.35 14.5,11.125 L14.5,4.75 C14.5,4.3 14.2,4 13.75,4 L12.25,4 C11.8,4 11.5,4.3 11.5,4.75 L11.5,11.125 C11.5,11.35 11.35,11.5 11.125,11.5 L4.75,11.5 C4.3,11.5 4,11.8 4,12.25 L4,13.75 C4,14.2 4.3,14.5 4.75,14.5 L11.125,14.5 C11.35,14.5 11.5,14.65 11.5,14.875 L11.5,21.25 C11.5,21.7 11.8,22 12.25,22 L13.75,22 C14.2,22 14.5,21.7 14.5,21.25 L14.5,14.875 C14.5,14.65 14.65,14.5 14.875,14.5 L21.25,14.5 C21.7,14.5 22,14.2 22,13.75 L22,12.25 C22,11.8 21.7,11.5 21.25,11.5 Z" transform="translate(-4 -4)"/>
</svg>
