<?xml version="1.0" encoding="UTF-8"?>
<svg width="361px" height="320px" viewBox="0 0 361 320" version="1.1" xmlns="http://www.w3.org/2000/svg" xmlns:xlink="http://www.w3.org/1999/xlink">
    <!-- Generator: Sketch 48.2 (47327) - http://www.bohemiancoding.com/sketch -->
    <title>edit</title>
    <desc>Created with Sketch.</desc>
    <defs></defs>
    <g id="Artboard-2" stroke="none" stroke-width="1" fill="none" fill-rule="evenodd" transform="translate(-7.000000, -81.000000)">
        <g id="edit" transform="translate(7.000000, 81.000000)" fill="#000000" fill-rule="nonzero">
            <path d="M261.850347,197.1875 L274.385069,184.6875 C276.766667,182.3125 280.777778,184 280.777778,187.3125 L280.777778,290 C280.777778,306.5625 267.302951,320 250.694444,320 L30.0833333,320 C13.4748264,320 0,306.5625 0,290 L0,70 C0,53.4375 13.4748264,40 30.0833333,40 L213.278299,40 C216.6,40 218.292187,44.0625 215.91059,46.375 L203.375868,58.875 C202.686458,59.5625 201.683681,60 200.743576,60 L30.0833333,60 C24.5680556,60 20.0555556,64.5 20.0555556,70 L20.0555556,290 C20.0555556,295.5 24.5680556,300 30.0833333,300 L250.694444,300 C256.209722,300 260.722222,295.5 260.722222,290 L260.722222,199.8125 C260.722222,198.8125 261.098264,197.875 261.850347,197.1875 Z M353.291146,77.6875 L157.436111,273 L94.8251736,279.9375 C86.4269097,280.875 79.3447917,273.8125 80.2848958,265.4375 L87.2416667,203 L283.096701,7.6875 C293.375174,-2.5625 310.046354,-2.5625 320.324826,7.6875 L353.291146,40.5625 C363.569618,50.8125 363.569618,67.4375 353.291146,77.6875 Z M294.628646,107.9375 L252.825347,66.25 L106.419792,212.1875 L101.217882,259.125 L148.285764,253.9375 L294.628646,107.9375 Z M339.12691,54.6875 L306.16059,21.8125 C303.778993,19.4375 299.767882,19.3125 297.323611,21.8125 L266.989583,52.0625 L308.792882,93.75 L339.12691,63.5 C341.571181,61.125 341.571181,57.125 339.12691,54.6875 Z" id="Shape"></path>
        </g>
    </g>
</svg>